<svg xmlns="http://www.w3.org/2000/svg" xmlns:svg="http://www.w3.org/2000/svg" id="svg1011" width="210.511" height="109.063" version="1.1" viewBox="0 0 210.511 109.063" xml:space="preserve"><metadata id="metadata1017"/><defs id="defs1015"><clipPath id="clipPath1029" clipPathUnits="userSpaceOnUse"><path id="path1027" d="M 0,0 H 365760 V 205740 H 0 Z"/></clipPath></defs><g id="g1019" transform="matrix(1.3333333,0,0,-1.3333333,-3.4343762,536.56561)"><g id="g1021" transform="matrix(1,0,0,-1,0,405)"><g id="g1023" transform="scale(0.0019685)"><g id="g1025" clip-path="url(#clipPath1029)"><g id="g1037"><g id="g1039"><path style="fill:#fff;fill-opacity:1;fill-rule:evenodd;stroke:none" id="path1041" d="M 1499,1499 H 81323 V 42671 H 1499 Z"/></g><path style="fill:none;stroke:#595959;stroke-width:381;stroke-linecap:butt;stroke-linejoin:round;stroke-miterlimit:8;stroke-dasharray:none;stroke-opacity:1" id="path1043" d="M 1499,1499 H 81323 V 42671 H 1499 Z"/></g><g id="g1045"><g id="g1047"><g id="g1049"><path style="fill:#000;fill-opacity:0;fill-rule:evenodd;stroke:none" id="path1051" d="M 3882.196,12543.278 H 78942.195"/></g></g><path style="fill:none;stroke:#595959;stroke-width:1524;stroke-linecap:butt;stroke-linejoin:round;stroke-miterlimit:8;stroke-dasharray:none;stroke-opacity:1" id="path1053" d="M 3882.196,12543.278 H 78942.195"/></g><g id="g1055"><g id="g1057"><g id="g1059"><path style="fill:#000;fill-opacity:0;fill-rule:evenodd;stroke:none" id="path1061" d="M 4509.141,3507.0806 H 78309.14 V 11043.08 H 4509.141 Z"/></g></g></g><g id="g1063" transform="scale(381)"><g id="g1065" transform="translate(11.835016,9.204936)"><g id="g1067"><text style="font-variant:normal;font-weight:700;font-size:16px;font-family:'Helvetica Neue','Helvetica',Arial,sans-serif;-inkscape-font-specification:HelveticaNeue-Bold;writing-mode:lr-tb;fill:#000;fill-opacity:1;fill-rule:nonzero;stroke:none" id="text1071" transform="translate(0,15.749763)"><tspan id="tspan1069" x="0 12.432 22.192 31.376 40.848 45.28 55.648 65.408 74.88 80.992 90.176 99.36 103.792 113.264 117.376 126.56 135.744 145.216 153.808 162.992 171.584" y="0">Open Source Licenses</tspan></text></g></g></g><g id="g1075"><g id="g1077"><g id="g1079"><path style="fill:#000;fill-opacity:0;fill-rule:evenodd;stroke:none" id="path1081" d="M 4811.468,13579.788 H 40151.47 v 7535.999 H 4811.468 Z"/></g></g></g><g id="g1083" transform="scale(381)"><g id="g1085" transform="translate(12.628525,35.642487)"><g id="g1087"><text style="font-variant:normal;font-weight:400;font-size:10.6667px;font-family:'Helvetica Neue','Helvetica',Arial,sans-;-inkscape-font-specification:HelveticaNeue;writing-mode:lr-tb;fill:#000;fill-opacity:1;fill-rule:nonzero;stroke:none" id="text1091" transform="translate(0,13.629764)"><tspan id="tspan1089" x="0 7.701 13.429 16.789 23.104 31.179 36.907 40.267" y="0">Hardware</tspan></text></g></g></g><g id="g1095"><g id="g1097"><g id="g1099"><path style="fill:#000;fill-opacity:0;fill-rule:evenodd;stroke:none" id="path1101" d="M 4811.468,22147.285 H 40151.47 v 7536 H 4811.468 Z"/></g></g></g><g id="g1103" transform="scale(381)"><g id="g1105" transform="translate(12.628525,58.129356)"><g id="g1107"><text style="font-variant:normal;font-weight:400;font-size:10.6667px;font-family:'Helvetica Neue','Helvetica',Arial,sans-;-inkscape-font-specification:HelveticaNeue;writing-mode:lr-tb;fill:#000;fill-opacity:1;fill-rule:nonzero;stroke:none" id="text1111" transform="translate(0,13.629764)"><tspan id="tspan1109" x="0 6.901 13.024 16.171 19.52 27.595 33.323 36.683" y="0">Software</tspan></text></g></g></g><g id="g1115"><g id="g1117"><g id="g1119"><path style="fill:#000;fill-opacity:0;fill-rule:evenodd;stroke:none" id="path1121" d="m 4811.227,30714.783 h 35340 v 7535.997 h -35340 z"/></g></g></g><g id="g1123" transform="scale(381)"><g id="g1125" transform="translate(12.627893,80.61623)"><g id="g1127"><text style="font-variant:normal;font-weight:400;font-size:10.6667px;font-family:'Helvetica Neue','Helvetica',Arial,sans-;-inkscape-font-specification:HelveticaNeue;writing-mode:lr-tb;fill:#000;fill-opacity:1;fill-rule:nonzero;stroke:none" id="text1131" transform="translate(0,13.629764)"><tspan id="tspan1129" x="0 7.509 13.632 19.36 25.291 34.389 40.117 46.048 49.397 55.125 58.475 60.843 66.965" y="0">Documentation</tspan></text></g></g></g><g id="g1135"><g id="g1137"><g id="g1139"><path style="fill:#000;fill-opacity:0;fill-rule:evenodd;stroke:none" id="path1141" d="M 3882.196,39149.8 H 78942.195"/></g></g><path style="fill:none;stroke:#595959;stroke-width:1524;stroke-linecap:butt;stroke-linejoin:round;stroke-miterlimit:8;stroke-dasharray:none;stroke-opacity:1" id="path1143" d="M 3882.196,39149.8 H 78942.195"/></g><g id="g1145"><g id="g1147"><g id="g1149"><path style="fill:#000;fill-opacity:0;fill-rule:evenodd;stroke:none" id="path1151" d="M 3255.2507,30714.947 H 78315.25"/></g></g><path style="fill:none;stroke:#595959;stroke-width:381;stroke-linecap:butt;stroke-linejoin:round;stroke-miterlimit:8;stroke-dasharray:none;stroke-opacity:1" id="path1153" d="M 3255.2507,30714.947 H 78315.25"/></g><g id="g1155"><g id="g1157"><g id="g1159"><path style="fill:#000;fill-opacity:0;fill-rule:evenodd;stroke:none" id="path1161" d="M 3882.196,21745.566 H 78942.195"/></g></g><path style="fill:none;stroke:#595959;stroke-width:381;stroke-linecap:butt;stroke-linejoin:round;stroke-miterlimit:8;stroke-dasharray:none;stroke-opacity:1" id="path1163" d="M 3882.196,21745.566 H 78942.195"/></g><g id="g1165"><g id="g1167"><g id="g1169"><path style="fill:#000;fill-opacity:0;fill-rule:evenodd;stroke:none" id="path1171" d="M 42970.066,13638.395 H 78310.06 v 7536.001 H 42970.066 Z"/></g></g></g><g id="g1173" transform="matrix(381,0,0,381,1709.972,0)"><g id="g1175" transform="translate(112.78233,35.796314)"><g id="g1177"><text style="font-variant:normal;font-weight:700;font-size:10.6667px;font-family:'Helvetica Neue','Helvetica',Arial,sans-;-inkscape-font-specification:HelveticaNeue-Bold;text-align:end;writing-mode:lr-tb;text-anchor:end;fill:#000;fill-opacity:1;fill-rule:nonzero;stroke:none" id="text1181" x="71.357" y="0" transform="translate(16.971207,13.629764)"><tspan id="tspan1179" x="71.357" y="0">CERN-OHL-W-2.0</tspan></text></g></g></g><g id="g1185"><g id="g1187"><g id="g1189"><path style="fill:#000;fill-opacity:0;fill-rule:evenodd;stroke:none" id="path1191" d="M 42970.066,22205.893 H 78310.06 v 7536 H 42970.066 Z"/></g></g></g><g id="g1193" transform="scale(381)"><g id="g1195" transform="translate(112.78233,58.283184)"><g id="g1197"><text style="font-variant:normal;font-weight:700;font-size:10.6667px;font-family:'Helvetica Neue','Helvetica',Arial,sans-;-inkscape-font-specification:HelveticaNeue-Bold;text-align:end;writing-mode:lr-tb;text-anchor:end;fill:#000;fill-opacity:1;fill-rule:nonzero;stroke:none" id="text1201" x="92.785" y="13.63"><tspan id="tspan1199" x="92.785" y="13.63" style="text-align:end;text-anchor:end">MIT</tspan></text></g></g></g><g id="g1205"><g id="g1207"><g id="g1209"><path style="fill:#000;fill-opacity:0;fill-rule:evenodd;stroke:none" id="path1211" d="M 42969.824,30773.39 H 78309.83 v 7536 H 42969.824 Z"/></g></g></g><g id="g1213" transform="matrix(381,0,0,381,135.54911,0)"><g id="g1215" transform="translate(112.78169,80.77006)"><g id="g1217"><text style="font-variant:normal;font-weight:700;font-size:10.6667px;font-family:'Helvetica Neue','Helvetica',Arial,sans-;-inkscape-font-specification:HelveticaNeue-Bold;writing-mode:lr-tb;fill:#000;fill-opacity:1;fill-rule:nonzero;stroke:none" id="text1221" x="92.765" y="13.63"><tspan id="tspan1219" x="92.765" y="13.63" style="text-align:end;text-anchor:end">CC-BY-4.0</tspan></text></g></g></g></g></g></g></g></svg>